<?xml version="1.0" standalone="no"?>
<!DOCTYPE svg PUBLIC "-//W3C//DTD SVG 1.1//EN" "http://www.w3.org/Graphics/SVG/1.1/DTD/svg11.dtd" >
<svg xmlns="http://www.w3.org/2000/svg">
<metadata></metadata>
<defs>
<font id="steelfishregular" horiz-adv-x="557" >
<font-face units-per-em="2048" ascent="1638" descent="-410" />
<missing-glyph horiz-adv-x="251" />
<glyph horiz-adv-x="2048" />
<glyph horiz-adv-x="2048" />
<glyph unicode="&#xd;" horiz-adv-x="2048" />
<glyph unicode=" "  horiz-adv-x="251" />
<glyph unicode="&#x09;" horiz-adv-x="251" />
<glyph unicode="&#xa0;" horiz-adv-x="251" />
<glyph unicode="!" horiz-adv-x="309" d="M72 0v164h166v-164h-166zM72 821v817h166v-811l-41 -499h-84z" />
<glyph unicode="&#x22;" horiz-adv-x="348" d="M57 1475v163h140v-163l-39 -246h-62zM287 1475v163h139v-163l-39 -246h-61z" />
<glyph unicode="#" horiz-adv-x="753" d="M-4 836l29 108h131l47 170h-131l28 111h131l97 364h112l-96 -364h168l96 364h109l-96 -364h139l-29 -111h-139l-45 -170h139l-31 -108h-137l-100 -365h-109l99 365h-172l-97 -365h-110l98 365h-131zM268 944h168l47 170h-172z" />
<glyph unicode="$" horiz-adv-x="630" d="M45 360v203h164v-305q0 -76 63 -90v577q-10 10 -21 22.5t-22 25.5q-184 193 -184 381v104q0 330 227 358v90h76v-90q229 -25 230 -358v-150h-164v252q0 74 -66 90v-571q10 -12 22.5 -24.5t22.5 -24.5q184 -197 185 -346v-144q0 -334 -230 -358v-104h-76v104 q-227 27 -227 358zM209 1157q0 -63 63 -158v471q-63 -14 -63 -90v-223zM348 168q66 16 66 90v188q0 86 -66 195v-473z" />
<glyph unicode="%" horiz-adv-x="1021" d="M47 1163v226q0 252 174 251q172 0 172 -251v-226q0 -250 -172 -250q-174 0 -174 250zM113 0l690 1638h100l-688 -1638h-102zM164 1094q0 -68 57 -68q59 0 60 68v366q0 68 -60 68q-57 0 -57 -68v-366zM612 250v227q0 250 174 250q172 0 172 -250v-227q0 -250 -172 -250 q-174 0 -174 250zM729 180q0 -68 57 -67q59 0 60 67v367q0 68 -60 67q-57 0 -57 -67v-367z" />
<glyph unicode="&#x26;" horiz-adv-x="712" d="M29 360v66q-4 238 157 444q-111 297 -110 457q0 311 225 311q207 0 207 -311q0 -195 -150 -455l142 -432l45 125h137l-111 -385q25 -53 111 -30v-150h-84q-88 0 -115 68q-61 -68 -190 -68q-264 0 -264 360zM193 299q0 -135 100 -135q94 0 117 41l-152 489 q-66 -90 -65 -270v-125zM240 1343q0 -122 43 -296q80 168 79 299v34q0 94 -61 95q-61 0 -61 -95v-37z" />
<glyph unicode="'" horiz-adv-x="192" d="M57 1475v163h140v-163l-39 -246h-62z" />
<glyph unicode="(" horiz-adv-x="389" d="M45 197v1245q0 360 274 360v-98q-176 0 -176 -229v-1311q0 -229 176 -230v-98q-274 0 -274 361z" />
<glyph unicode=")" horiz-adv-x="389" d="M45 -66q174 0 174 230v1311q0 229 -174 229v98q272 0 272 -360v-1245q0 -360 -272 -361v98z" />
<glyph unicode="*" horiz-adv-x="645" d="M41 723l211 90l-211 92l106 148l152 -174l25 231l174 -57l-119 -199l225 51v-182l-225 49l119 -197l-174 -57l-25 227l-152 -170z" />
<glyph unicode="+" horiz-adv-x="548" d="M33 770v131h176v176h131v-176h174v-131h-174v-176h-131v176h-176z" />
<glyph unicode="," horiz-adv-x="231" d="M37 27v170h147v-164q0 -154 -123 -150v72q66 0 66 72h-90z" />
<glyph unicode="-" horiz-adv-x="339" d="M33 770v131h274v-131h-274z" />
<glyph unicode="." horiz-adv-x="231" d="M37 0v197h147v-197h-147z" />
<glyph unicode="/" horiz-adv-x="430" d="M4 0l315 1638h101l-316 -1638h-100z" />
<glyph unicode="0" horiz-adv-x="622" d="M66 360v918q0 360 245 360q246 0 246 -360v-918q0 -360 -246 -360t-245 360zM229 258q0 -94 82 -94t82 94v1122q0 94 -82 95q-82 0 -82 -95v-1122z" />
<glyph unicode="1" horiz-adv-x="350" d="M31 1311v164q90 0 90 124v39h164v-1638h-164v1311h-90z" />
<glyph unicode="2" horiz-adv-x="622" d="M66 0v311q0 213 161 455q164 244 166 451v163q0 94 -82 95q-82 0 -82 -95v-252h-163v150q0 360 245 360q246 0 246 -360v-90q0 -221 -162 -463t-164 -436v-125h326v-164h-491z" />
<glyph unicode="3" horiz-adv-x="622" d="M66 360v197v6h163v-305q0 -94 82 -94t82 94v401q0 90 -80 95h-53v164h62q72 0 71 94v368q0 94 -82 95q-82 0 -82 -95v-252h-163v150q0 360 245 360q246 0 246 -360v-164q0 -221 -100 -278q100 -57 100 -279v-197q0 -360 -246 -360t-245 360z" />
<glyph unicode="4" horiz-adv-x="618" d="M14 328v172l336 1138h154v-1146h84v-164h-84v-328h-154v328h-336zM170 492h180v684l-45 -197z" />
<glyph unicode="5" horiz-adv-x="626" d="M66 793v845h491v-163h-328v-492q39 33 86 33q246 0 246 -361v-295q0 -360 -246 -360t-245 360v203h163v-305q0 -94 82 -94t82 94v500q0 109 -98 108q-82 0 -94 -73h-139z" />
<glyph unicode="6" horiz-adv-x="622" d="M66 360v918q0 360 245 360q246 0 246 -360v-150h-164v252q0 94 -82 95q-82 0 -82 -95v-399q37 31 82 31q246 0 246 -361v-291q0 -360 -246 -360t-245 360zM229 258q0 -94 82 -94t82 94v494q0 96 -82 96q-80 0 -82 -88v-502z" />
<glyph unicode="7" horiz-adv-x="538" d="M23 1475v163h493v-182q-135 -301 -187.5 -669.5t-54.5 -786.5h-161q0 410 62.5 782.5t197.5 692.5h-350z" />
<glyph unicode="8" horiz-adv-x="622" d="M66 360v197q0 221 100 279q-100 57 -100 278v164q0 360 245 360q246 0 246 -360v-164q0 -221 -100 -278q100 -57 100 -279v-197q0 -360 -246 -360t-245 360zM229 258q0 -94 82 -94t82 94v401q0 90 -80 95q-84 0 -84 -95v-401zM229 1012q0 -90 84 -94q80 0 80 94v368 q0 94 -82 95q-82 0 -82 -95v-368z" />
<glyph unicode="9" horiz-adv-x="622" d="M66 360v150h163v-252q0 -94 82 -94t82 94v399q-37 -31 -82 -30q-246 0 -245 360v291q0 360 245 360q246 0 246 -360v-918q0 -360 -246 -360t-245 360zM229 887q0 -96 82 -96q80 0 82 88v501q0 94 -82 95q-82 0 -82 -95v-493z" />
<glyph unicode=":" horiz-adv-x="231" d="M37 0v197h147v-197h-147zM37 561v197h147v-197h-147z" />
<glyph unicode=";" horiz-adv-x="231" d="M37 27v170h147v-164q0 -154 -123 -150v72q66 0 66 72h-90zM37 561v197h147v-197h-147z" />
<glyph unicode="&#x3c;" horiz-adv-x="555" d="M33 754v161l487 209v-92l-461 -192l461 -205v-92z" />
<glyph unicode="=" horiz-adv-x="487" d="M33 606v115h405v-115h-405zM33 885v114h405v-114h-405z" />
<glyph unicode="&#x3e;" horiz-adv-x="555" d="M33 543v92l461 192l-461 205v92l487 -211v-161z" />
<glyph unicode="?" horiz-adv-x="630" d="M66 1128v150q0 360 245 360q246 0 246 -360v-64q0 -221 -100.5 -339.5t-102.5 -311.5v-235h-166v258q0 213 100.5 331.5t104.5 323.5v139q0 94 -82 95q-82 0 -82 -95v-252h-163zM188 0v164h166v-164h-166z" />
<glyph unicode="@" horiz-adv-x="876" d="M59 399v744q0 332 377 332q379 0 379 -332v-549q0 -178 -166 -178q-78 0 -121 49q-29 -49 -100 -49q-129 0 -129 186v60q0 92 70 141q35 27 63.5 46t48.5 34v172q0 51 -41 51t-41 -51v-148h-90v109q0 186 131 186q133 0 133 -186v-455q0 -49 74 -49t74 49v621 q0 193 -287 192q-276 0 -276 -192v-731q0 -180 204 -193h410v-88h-377q-336 0 -336 229zM391 563q0 -53 41 -53q49 0 49 53v205q-35 -18 -62.5 -39.5t-27.5 -77.5v-88z" />
<glyph unicode="A" horiz-adv-x="600" d="M0 0l217 1638h166l217 -1638h-166l-31 246h-208l-29 -246h-166zM217 422h164l-55 461l-27 291l-25 -289z" />
<glyph unicode="B" horiz-adv-x="622" d="M66 0v1638h245q246 0 246 -360v-164q0 -221 -117 -278q117 -59 117 -279v-197q0 -360 -246 -360h-245zM229 164h82q82 0 82 94v401q0 90 -80 95h-84v-590zM229 918h84q80 0 80 94v368q0 94 -82 95h-82v-557z" />
<glyph unicode="C" horiz-adv-x="606" d="M66 360v918q0 360 245 360q238 0 238 -360v-150h-156v252q0 94 -82 95q-82 0 -82 -95v-1122q0 -94 82 -94t82 94v305h156v-203q0 -360 -238 -360q-246 0 -245 360z" />
<glyph unicode="D" horiz-adv-x="622" d="M66 0v1638h245q246 0 246 -360v-918q0 -360 -246 -360h-245zM229 164h82q82 0 82 94v1122q0 94 -82 95h-82v-1311z" />
<glyph unicode="E" horiz-adv-x="522" d="M66 0v1638h415v-163h-252v-557h144v-164h-144v-590h252v-164h-415z" />
<glyph unicode="F" horiz-adv-x="512" d="M66 0v1638h415v-163h-252v-557h144v-164h-144v-754h-163z" />
<glyph unicode="G" horiz-adv-x="616" d="M66 360v918q0 360 247 360q252 0 252 -360v-150h-157v252q0 94 -95 95q-84 0 -84 -95v-1122q0 -94 82 -94q94 0 95 94v334h-93v162h250v-754l-80 111q-47 -111 -172 -111q-246 0 -245 360z" />
<glyph unicode="H" horiz-adv-x="622" d="M66 0v1638h163v-720h164v720h164v-1638h-164v754h-164v-754h-163z" />
<glyph unicode="I" horiz-adv-x="294" d="M66 0v1638h163v-1638h-163z" />
<glyph unicode="J" horiz-adv-x="387" d="M41 0v164h45q82 0 82 94v1380h164v-1278q0 -360 -246 -360h-45z" />
<glyph unicode="K" horiz-adv-x="663" d="M66 0v1638h163v-747l43 145l199 602h172l-274 -798l290 -840h-174l-213 645l-43 146v-791h-163z" />
<glyph unicode="L" horiz-adv-x="503" d="M66 0v1638h163v-1474h252v-164h-415z" />
<glyph unicode="M" horiz-adv-x="884" d="M66 0v1638h239l109 -882l26 -291l25 289l108 884h246v-1638h-147v1282l-21 -197l-143 -1085h-135l-144 1100l-16 180v-1280h-147z" />
<glyph unicode="N" horiz-adv-x="675" d="M66 0v1638h196l168 -933l33 -248v1181h147v-1638h-196l-172 963l-29 219v-1182h-147z" />
<glyph unicode="O" horiz-adv-x="622" d="M66 360v918q0 360 245 360q246 0 246 -360v-918q0 -360 -246 -360t-245 360zM229 258q0 -94 82 -94t82 94v1122q0 94 -82 95q-82 0 -82 -95v-1122z" />
<glyph unicode="P" horiz-adv-x="630" d="M66 0v1638h251q272 0 273 -376v-66q0 -377 -271 -377h-90v-819h-163zM229 983h90q106 0 107 111v270q0 111 -109 111h-88v-492z" />
<glyph unicode="Q" horiz-adv-x="622" d="M66 360v918q0 360 245 360q246 0 246 -360v-918q0 -324 -197 -356v-15q0 -79 62 -85q9 -1 17 -1q61 0 118 38v-117q-75 -33 -134 -33q-48 0 -85 21q-80 41 -82 192q-190 39 -190 356zM229 258q0 -94 82 -94t82 94v1122q0 94 -82 95q-82 0 -82 -95v-1122z" />
<glyph unicode="R" horiz-adv-x="624" d="M66 0v1638h251q272 0 273 -344v-180q0 -227 -127 -323l123 -791h-166l-105 754h-86v-754h-163zM229 918h90q106 0 107 110v336q0 111 -109 111h-88v-557z" />
<glyph unicode="S" horiz-adv-x="598" d="M66 360v203h163v-305q0 -94 70 -94t70 94v188q0 152 -151.5 346.5t-151.5 381.5v104q0 360 233 360t233 -360v-150h-163v252q0 94 -70 95q-70 0 -70 -95v-223q0 -106 151.5 -307t151.5 -346v-144q0 -360 -233 -360t-233 360z" />
<glyph unicode="T" horiz-adv-x="503" d="M6 1475v163h492v-163h-164v-1475h-164v1475h-164z" />
<glyph unicode="U" horiz-adv-x="622" d="M66 360v1278h163v-1380q0 -94 82 -94t82 94v1380h164v-1278q0 -360 -246 -360t-245 360z" />
<glyph unicode="V" horiz-adv-x="600" d="M0 1638h166l108 -882l25 -291l25 289l110 884h166l-217 -1638h-166z" />
<glyph unicode="W" horiz-adv-x="1001" d="M0 1638h166l108 -882l27 -291l25 289l108 884h133l109 -882l26 -291l25 289l109 884h165l-215 -1638h-151l-135 1044l-131 -1044h-152z" />
<glyph unicode="X" horiz-adv-x="624" d="M2 0l225 883l-186 755h168l74 -368l30 -137l29 137l74 368h170l-189 -755l228 -883h-170l-103 465l-39 166l-41 -170l-100 -461h-170z" />
<glyph unicode="Y" horiz-adv-x="593" d="M0 1638h168l98 -505l31 -222l31 222l96 505h170l-215 -938v-700h-164v700z" />
<glyph unicode="Z" horiz-adv-x="550" d="M31 0v184l340 1291h-324v163h473v-200l-325 -1274h325v-164h-489z" />
<glyph unicode="[" horiz-adv-x="389" d="M45 -166v1968h274v-98h-176v-1770h176v-98z" />
<glyph unicode="\" horiz-adv-x="442" d="M12 1638h99l317 -1638h-102z" />
<glyph unicode="]" horiz-adv-x="389" d="M45 -66l174 -2v1772h-174v98h272v-1966h-272v98z" />
<glyph unicode="^" horiz-adv-x="626" d="M23 1151l210 487h162l209 -487h-92l-193 461l-204 -461h-92z" />
<glyph unicode="_" horiz-adv-x="653" d="M0 -164h655v-164h-655v164z" />
<glyph unicode="`" horiz-adv-x="323" d="M29 1817h178l98 -105h-84z" />
<glyph unicode="a" horiz-adv-x="555" d="M66 289v92q0 141 108 219q55 39 98 69.5t76 53.5v264q0 82 -65 82q-61 0 -62 -82v-227h-141v168q0 289 203 289q207 0 206 -289v-928h-141v53q-35 -53 -115 -53q-168 0 -167 289zM207 229q0 -84 65 -84q76 0 76 84v318q-29 -14 -52.5 -30.5t-45.5 -33.5q-43 -35 -43 -118 v-136z" />
<glyph unicode="b" d="M66 0v1638h141v-471q25 49 117 50q168 0 168 -289v-639q0 -289 -185 -289q-113 0 -155 92l-23 -92h-63zM207 229q0 -84 72 -84t71 84v758q0 82 -71 82q-72 0 -72 -82v-758z" />
<glyph unicode="c" horiz-adv-x="548" d="M66 289v639q0 289 210 289q215 0 216 -289v-168h-142v227q0 82 -74 82q-70 0 -69 -82v-758q0 -84 69 -84q74 0 74 84v234h142v-174q0 -289 -216 -289q-211 0 -210 289z" />
<glyph unicode="d" d="M66 289v639q0 289 159 289q100 0 125 -50v471h142v-1638h-142v55q-59 -55 -125 -55q-160 0 -159 289zM207 229q0 -84 72 -84t71 84v758q0 82 -71 82q-72 0 -72 -82v-758z" />
<glyph unicode="e" d="M66 289v639q0 289 210 289q215 0 216 -289v-346h-285v-353q0 -84 69 -84q74 0 74 84v234h142v-174q0 -289 -216 -289q-211 0 -210 289zM207 725h143v262q0 82 -74 82q-70 0 -69 -82v-262z" />
<glyph unicode="f" horiz-adv-x="288" d="M0 1069v148h53v133q0 288 234 288h2v-147q-94 0 -94 -82v-192h63v-148h-63v-1069h-142v1069h-53z" />
<glyph unicode="g" d="M66 317v611q0 289 159 289q66 0 125 -56v56h142v-1217q0 -289 -216 -289q-188 0 -208 223h139q3 -77 69 -77q74 0 74 84v137q-25 -49 -125 -49q-160 0 -159 288zM207 258q0 -82 72 -82q66 0 71 70v741q0 84 -71 84q-72 0 -72 -84v-729z" />
<glyph unicode="h" d="M66 0v1638h141v-471q25 49 117 50q168 0 168 -289v-928h-142v987q0 82 -71 82q-72 0 -72 -82v-987h-141z" />
<glyph unicode="i" horiz-adv-x="272" d="M66 0v1217h141v-1217h-141zM66 1415v223h141v-223h-141z" />
<glyph unicode="j" horiz-adv-x="284" d="M-33 -141q111 0 111 108v1250h141v-1203q0 -303 -252 -303v148zM78 1415v223h141v-223h-141z" />
<glyph unicode="k" horiz-adv-x="548" d="M66 0v1638h141v-983l37 119l147 443h148l-211 -615l209 -602h-150l-143 436l-37 121v-557h-141z" />
<glyph unicode="l" horiz-adv-x="237" d="M47 0v1638h141v-1638h-141z" />
<glyph unicode="m" horiz-adv-x="839" d="M66 0v1217h141v-50q25 49 117 50q86 0 135 -78q41 78 147 78q168 0 168 -289v-928h-141v987q0 82 -72 82q-70 0 -69 -80v-989h-142v987q0 82 -71 82q-72 0 -72 -82v-987h-141z" />
<glyph unicode="n" d="M66 0v1217h141v-50q25 49 117 50q168 0 168 -289v-928h-142v987q0 82 -71 82q-72 0 -72 -82v-987h-141z" />
<glyph unicode="o" d="M66 289v639q0 289 210 289q215 0 216 -289v-639q0 -289 -216 -289q-211 0 -210 289zM207 229q0 -84 69 -84q74 0 74 84v758q0 82 -74 82q-70 0 -69 -82v-758z" />
<glyph unicode="p" d="M66 -289v1506h141v-56q57 55 125 56q160 0 160 -289v-639q0 -289 -160 -289q-100 0 -125 49v-338h-141zM207 229q0 -82 72 -82q71 0 71 82v758q0 84 -71 84q-72 0 -72 -84v-758z" />
<glyph unicode="q" d="M66 289v639q0 289 159 289q66 0 125 -56v56h142v-1506h-142v338q-25 -49 -125 -49q-160 0 -159 289zM207 229q0 -82 72 -82t71 82v758q0 84 -71 84q-72 0 -72 -84v-758z" />
<glyph unicode="r" horiz-adv-x="356" d="M66 0v1217h141v-50q25 49 123 50v-179q-18 31 -51 31q-72 0 -72 -82v-987h-141z" />
<glyph unicode="s" horiz-adv-x="501" d="M51 311v54h139v-142q0 -84 62 -84q61 0 61 84v113q0 104 -131 242q-131 139 -131 329q0 309 197 310q199 0 198 -310v-104h-141v190q0 84 -57 84t-58 -84v-112q0 -94 132 -256q133 -164 133 -320q0 -305 -203 -305q-201 0 -201 311z" />
<glyph unicode="t" horiz-adv-x="321" d="M10 1069v148h58v421h141v-421h65v-148h-65v-840q0 -82 76 -82v-147q-217 0 -217 289v780h-58z" />
<glyph unicode="u" d="M66 289v928h141v-988q0 -82 72 -82t71 82v988h142v-1217h-142v49q-25 -49 -117 -49q-168 0 -167 289z" />
<glyph unicode="v" horiz-adv-x="491" d="M10 1217h146l67 -541l23 -258l20 256l68 543h147l-162 -1217h-147z" />
<glyph unicode="w" horiz-adv-x="776" d="M10 1217h146l67 -541l23 -258l20 256l68 543h106l68 -541l22 -258l21 256l67 543h148l-162 -1217h-127l-90 670l-88 -670h-127z" />
<glyph unicode="x" horiz-adv-x="485" d="M10 0l154 600l-152 617h150l53 -263l29 -127l26 127l52 263h151l-154 -617l156 -600h-149l-47 217l-35 154l-37 -158l-47 -213h-150z" />
<glyph unicode="y" horiz-adv-x="503" d="M16 1217h146l67 -541l23 -258l20 256l68 543h147l-161 -1217q-20 -147 -95 -218t-192 -71v148q123 8 145 141z" />
<glyph unicode="z" horiz-adv-x="495" d="M57 0v160l252 909h-246v148h375v-175l-241 -897h239v-145h-379z" />
<glyph unicode="{" horiz-adv-x="532" d="M27 819l182 228v395q0 360 274 360v-98q-176 0 -176 -229v-457l-162 -199l162 -201v-454q0 -229 176 -230v-98q-274 0 -274 361v401z" />
<glyph unicode="|" horiz-adv-x="184" d="M43 0v1638h100l2 -1638h-102z" />
<glyph unicode="}" horiz-adv-x="532" d="M25 -66q176 0 176 230v457l161 198l-161 201v455q0 229 -176 229v98q274 0 274 -360v-402l182 -221l-182 -227v-395q0 -360 -274 -361v98z" />
<glyph unicode="~" horiz-adv-x="2895" d="M127 0v600h2v96h137v58h-37v180h37v63h-37v76h899v-94q-14 27 -49 27q-94 0 -94 -158q0 -156 98 -156q31 0 64 39v-35h49v377h766v-53h70v53h737v-1073h-2642zM129 754v180h39v-180h-39zM129 997v76h39v-76h-39zM186 160h123v86h-45v301h-78v-387zM289 823 q0 -131 94 -131q29 0 51 17q0 -47 -57 -47h-31v-62h43q113 12 113 145v252h-68v-186q0 -53 -41 -53q-39 0 -39 53v186h-65v-174zM340 160h76v73h26v-73h82v141l-53 246h-84l-47 -246v-141zM416 291v39l12 102h4l10 -102v-39h-26zM524 600h68v115q14 -25 49 -25q94 0 94 156 t-98 155q-29 0 -64 -40v36h-49v-397zM555 160h78v170h22v-170h84v155l-30 43v7l30 41v100l-22 41h-162v-387zM586 793v102q12 31 43 31q43 0 43 -78q0 -88 -45 -88q-29 0 -41 33zM633 393v84h22v-84h-22zM750 844q0 -156 110 -156q113 0 113 156q0 160 -113 160 q-111 0 -110 -160zM770 160h78v73h24v-73h78v141l-49 246h-84l-47 -246v-141zM817 844q0 84 43 84q45 0 45 -84q0 -82 -45 -82q-43 0 -43 82zM848 291v39l10 102h6l8 -102v-39h-24zM983 160h162l22 43v127l-16 28v7l16 28v113l-22 41h-162v-387zM1049 846q0 88 45 88 q27 0 39 -33v-104q-12 -29 -41 -29q-43 0 -43 78zM1063 233v97h22v-97h-22zM1063 393v84h22v-84h-22zM1200 160h80v387h-80v-387zM1214 774q2 -86 93 -86q45 0 70.5 26.5t25.5 82.5h-31q-6 -39 -51 -39q-41 0 -41 28q0 37 41 37h20v37h-20q-41 0 -41 35q0 33 41 33 q35 0 51 -41h31v110h-31v-47q-23 53 -67 54q-88 0 -88 -89q0 -55 45 -73q-47 -18 -48 -68zM1311 160h131v86h-53v80h53v67h-53v72h53v82h-131v-387zM1425 696h91v58h-29v133q0 41 29 41q12 0 24 -13l23 68q-16 14 -35 16q-43 0 -64 -49v47h-39v-301zM1530 160h80v159h49v68 h-49v78h49v82h-129v-387zM1544 696h144v58h-39v125q0 47 39 47q31 0 30 -47v-183h105v58h-39v125q0 45 39 45q31 0 30 -45v-183h68v193q0 111 -96 110q-49 0 -64 -49q-18 49 -57 49q-35 0 -55 -49v47h-66v-243h-39v-58zM1692 203l20 -43h137l25 43v303l-23 41h-139l-20 -41 v-303zM1769 233v244h23v-244h-23zM1905 160h65v250h6l19 -250h119v387h-66v-250h-6l-23 250h-114v-387zM1931 934h31v-238h70v301h-101v-63zM2048 844q0 -154 104 -154q74 0 93 119h-33q-6 -47 -51 -47q-47 0 -47 82q0 84 47 84t51 -56h33v121h-33v-43q-25 53 -62 54 q-102 0 -102 -160zM2136 465h43v-305h80v305h43v82h-166v-82zM2324 203l23 -43h133l23 43v147l-27 43l-72 17v67h21v-49h78v78l-21 41h-135l-23 -41v-135l25 -41l76 -19v-78h-21v58h-80v-88z" />
<glyph unicode="&#xa1;" horiz-adv-x="288" d="M57 -289v811l41 500h84l41 -494v-817h-166zM57 1186v164h166v-164h-166z" />
<glyph unicode="&#xa2;" horiz-adv-x="520" d="M47 289v639q0 276 195 286v187h32v-187q199 -8 199 -286v-168h-141v227q0 72 -58 80v-922q57 8 58 84v234h141v-174q0 -281 -199 -289v-164h-32v164q-195 10 -195 289zM188 229q0 -74 54 -84v922q-53 -10 -54 -80v-758z" />
<glyph unicode="&#xa3;" horiz-adv-x="468" d="M27 0v164h61v1136q0 338 297 338v-147q-156 0 -156 -131v-143h150v-148h-150v-905h213v-164h-415z" />
<glyph unicode="&#xa4;" horiz-adv-x="614" d="M3 593v77h528v-77h-528zM3 781v76h528v-76h-528zM66 360v918q0 360 245 360q238 0 238 -360v-150h-156v252q0 94 -82 95q-82 0 -82 -95v-1122q0 -94 82 -94t82 94v305h156v-203q0 -360 -238 -360q-246 0 -245 360z" />
<glyph unicode="&#xa5;" horiz-adv-x="593" d="M0 1638h168l98 -505l31 -222l31 222l96 505h170l-215 -938v-700h-164v700zM63 460v84h483v-84h-483zM63 665v84h483v-84h-483z" />
<glyph unicode="&#xa6;" horiz-adv-x="184" d="M43 0v547h100l2 -547h-102zM43 1030v608h100v-608h-100z" />
<glyph unicode="&#xa7;" horiz-adv-x="514" d="M66 270v49h131v-122q0 -74 59 -74q61 0 61 74v22q0 113 -127 262q-125 145 -124 291q-4 262 153 275q-154 154 -153 294v25q0 270 190 270q193 0 193 -270v-92h-132v168q0 70 -61 69q-59 0 -59 -69v-115q0 -80 90 -182q45 -51 73.5 -85t38.5 -54q23 -37 37.5 -78 t12.5 -121h-3q-8 -217 -180 -221q20 -16 47 -47t62 -74q70 -82 74 -195q0 -270 -193 -270q-190 0 -190 270zM197 766q0 -74 59 -74q61 0 61 74v106q-4 74 -61 72q-59 0 -59 -72v-106z" />
<glyph unicode="&#xa8;" horiz-adv-x="471" d="M49 1712v105h98v-105h-98zM328 1712v105h100v-105h-100z" />
<glyph unicode="&#xa9;" horiz-adv-x="1335" d="M33 827q0 131 49 247t135 204t200.5 139t246.5 51q131 0 246.5 -51t203.5 -139t139.5 -204t51.5 -247t-51.5 -245.5t-139.5 -200.5t-203.5 -135t-246.5 -49t-246 49t-201 135t-135 200.5t-49 245.5zM133 827q0 -109 42 -206t113.5 -168.5t169 -113.5t206.5 -42t205 42 t168.5 113.5t114.5 169t42 205.5q0 109 -42 205t-114.5 169t-169 115t-204.5 42q-109 0 -206.5 -42t-169 -115t-113.5 -169t-42 -205zM475 659v318q0 246 178 246q184 0 185 -246v-41h-121v92q0 70 -64 70q-59 0 -59 -70v-420q0 -72 59 -71q63 0 64 71v76h121v-25 q0 -246 -185 -245q-178 0 -178 245z" />
<glyph unicode="&#xaa;" horiz-adv-x="512" d="M104 1075v53q0 84 62 132q12 8 21.5 16t19.5 14q27 20 49 35v148q0 37 -25 36q-25 0 -24 -36v-140h-96v107q0 172 120 172q121 0 121 -172v-539h-96v14q-20 -14 -51 -14q-100 0 -101 174zM199 1040q-1 -36 26 -36q31 0 31 36v166q-23 -14 -40 -30.5t-17 -57.5v-78z" />
<glyph unicode="&#xab;" horiz-adv-x="1138" d="M133 528l320 455h147l-262 -455l260 -456h-145zM526 528l314 455h151l-266 -455l266 -456h-151z" />
<glyph unicode="&#xac;" horiz-adv-x="339" d="M33 770v131h274v-131h-274z" />
<glyph unicode="&#xad;" horiz-adv-x="339" d="M33 770v131h274v-131h-274z" />
<glyph unicode="&#xae;" horiz-adv-x="974" d="M27 1176q0 94 35.5 178t97 147.5t144.5 100t177 36.5t178 -36.5t147.5 -100t100.5 -147.5t37 -178t-37 -177.5t-100.5 -144.5t-147.5 -97t-178 -36t-177 36t-144.5 97t-97 144.5t-35.5 177.5zM98 1176q0 -78 31 -148t83 -122t121.5 -82.5t147.5 -30.5t147.5 30.5 t122 82.5t83 122t30.5 148t-30.5 147.5t-83 121.5t-122 83t-147.5 31t-147.5 -31t-121.5 -83t-83 -121.5t-31 -147.5zM299 901v557h178q193 0 197 -135q6 -135 -94 -154l86 -268h-97l-73 256h-103v-256h-94zM393 1212h105q76 0 75 95q0 96 -75 96h-105v-191z" />
<glyph unicode="&#xaf;" horiz-adv-x="409" d="M66 1712v105h294v-105h-294z" />
<glyph unicode="&#xb0;" horiz-adv-x="749" d="M49 1307q0 68 25.5 129t69.5 107t104.5 72.5t130.5 26.5q68 0 129 -26.5t106 -72.5t72 -107.5t27 -128.5q0 -68 -27 -128.5t-72 -104.5t-106.5 -69.5t-128.5 -25.5q-70 0 -130.5 25.5t-104.5 69.5t-69.5 104.5t-25.5 128.5zM135 1307q0 -49 19.5 -92.5t53.5 -76t78 -52 t93 -19.5t93 19.5t76 52t51 75.5t19 93q0 49 -19 93t-51 77.5t-76 53t-93 19.5t-93 -19.5t-78 -53t-53.5 -77.5t-19.5 -93z" />
<glyph unicode="&#xb1;" horiz-adv-x="548" d="M33 770v131h176v176h131v-176h174v-131h-174v-176h-131v176h-176zM54 401v135h448v-135h-448z" />
<glyph unicode="&#xb2;" horiz-adv-x="493" d="M68 588v213q0 133 104 291q98 141 102 268v102q0 35 -32 35q-33 0 -33 -35v-178h-141v113q0 242 174 241q174 0 174 -241v-56q0 -141 -107 -297q-96 -141 -98 -260v-55h205v-141h-348z" />
<glyph unicode="&#xb3;" horiz-adv-x="507" d="M78 831v144h143v-209q0 -37 31 -37q29 0 29 37v250q0 37 -27 37h-55v141h59q23 0 23 39v229q0 35 -29 35q-31 0 -31 -35v-178h-143v113q0 242 174 241q174 0 174 -241v-103q0 -123 -88 -172q88 -51 88 -168v-123q0 -244 -174 -243q-174 0 -174 243z" />
<glyph unicode="&#xb4;" horiz-adv-x="323" d="M23 1712l98 105h178l-193 -105h-83z" />
<glyph unicode="&#xb5;" horiz-adv-x="520" d="M47 -291v1508h141v-988q0 -82 72 -82t72 82v988h141v-1000q2 -70 45 -70v-147h-49q-68 0 -111 82q-51 -82 -143 -82q-18 0 -27 2v-293h-141z" />
<glyph unicode="&#xb6;" horiz-adv-x="489" d="M27 1024v614h434v-1638h-103v1024h-102v-1024h-102v1024h-127z" />
<glyph unicode="&#xb7;" horiz-adv-x="231" d="M37 670v197h147v-197h-147z" />
<glyph unicode="&#xb8;" horiz-adv-x="360" d="M74 -186h71q-6 -55 29 -56q35 0 35 43q0 59 -47 95q-41 35 -41 96v20h69v-16q0 -53 46 -86q43 -35 43 -100q0 -98 -105 -99q-106 0 -100 103z" />
<glyph unicode="&#xb9;" horiz-adv-x="319" d="M53 1397v141q57 0 58 55v45h141v-1050h-141v809h-58z" />
<glyph unicode="&#xba;" horiz-adv-x="520" d="M47 854v496q0 289 211 288q215 0 215 -288v-496q0 -289 -215 -289q-211 0 -211 289zM188 795q0 -84 70 -84q74 0 74 84v614q0 82 -74 82q-70 0 -70 -82v-614z" />
<glyph unicode="&#xbb;" horiz-adv-x="1138" d="M139 72l267 456l-267 455h152l313 -455l-313 -456h-152zM530 72l263 456l-263 455h148l319 -455l-319 -456h-148z" />
<glyph unicode="&#xbc;" horiz-adv-x="1144" d="M53 1397v141q57 0 58 55v45h141v-1050h-141v809h-58zM147 0l691 1638h100l-688 -1638h-103zM676 203v131l217 717h131v-707h53v-141h-53v-203h-135v203h-213zM797 344h92v274z" />
<glyph unicode="&#xbd;" horiz-adv-x="1181" d="M68 1397v141q57 0 57 55v45h141v-1050h-141v809h-57zM156 0l690 1638h100l-688 -1638h-102zM754 0v213q0 133 104 291q98 141 103 268v102q0 35 -33 35t-33 -35v-178h-141v113q0 242 174 242t174 -242v-55q0 -141 -107 -297q-96 -141 -98 -260v-56h205v-141h-348z" />
<glyph unicode="&#xbe;" horiz-adv-x="1230" d="M111 831v144h143v-209q0 -37 31 -37q29 0 28 37v250q0 37 -26 37h-56v141h60q23 0 22 39v229q0 35 -28 35q-31 0 -31 -35v-178h-143v113q0 242 174 241q174 0 174 -241v-103q0 -123 -88 -172q88 -51 88 -168v-123q0 -244 -174 -243q-174 0 -174 243zM264 0l690 1638h101 l-688 -1638h-103zM758 203v131l217 717h131v-707h53v-141h-53v-203h-135v203h-213zM879 344h92v274z" />
<glyph unicode="&#xbf;" horiz-adv-x="630" d="M70 72v63q0 221 100 340t102 311v236h166v-258q0 -213 -100 -332t-105 -323v-140q0 -94 82 -94t82 94v252h164v-149q0 -360 -246 -361q-246 0 -245 361zM272 1186v164h166v-164h-166z" />
<glyph unicode="&#xc0;" horiz-adv-x="600" d="M0 0l217 1638h166l217 -1638h-166l-31 246h-208l-29 -246h-166zM90 1817h178l98 -105h-84zM217 422h164l-55 461l-27 291l-25 -289z" />
<glyph unicode="&#xc1;" horiz-adv-x="600" d="M0 0l217 1638h166l217 -1638h-166l-31 246h-208l-29 -246h-166zM217 422h164l-55 461l-27 291l-25 -289zM224 1712l98 105h178l-193 -105h-83z" />
<glyph unicode="&#xc2;" horiz-adv-x="600" d="M0 0l217 1638h166l217 -1638h-166l-31 246h-208l-29 -246h-166zM104 1712l150 105h94l148 -105h-148l-47 82l-47 -82h-150zM217 422h164l-55 461l-27 291l-25 -289z" />
<glyph unicode="&#xc3;" horiz-adv-x="600" d="M0 0l217 1638h166l217 -1638h-166l-31 246h-208l-29 -246h-166zM111 1712q-2 45 24.5 75t67.5 30q25 0 52.5 -6.5t53 -14.5t48 -14t38.5 -6q35 4 37 41h60q0 -53 -25 -79t-62 -26q-51 0 -106 21q-59 20 -92 18q-35 0 -37 -39h-59zM217 422h164l-55 461l-27 291l-25 -289z " />
<glyph unicode="&#xc4;" horiz-adv-x="600" d="M0 0l217 1638h166l217 -1638h-166l-31 246h-208l-29 -246h-166zM110 1712v105h98v-105h-98zM217 422h164l-55 461l-27 291l-25 -289zM389 1712v105h100v-105h-100z" />
<glyph unicode="&#xc5;" horiz-adv-x="600" d="M0 0l217 1638h166l217 -1638h-166l-31 246h-208l-29 -246h-166zM185 1772q0 47 33.5 81.5t80.5 34.5t82 -34.5t35 -81.5t-35 -81t-82 -34t-80.5 34t-33.5 81zM213 1772q0 -35 25.5 -60.5t60.5 -25.5t60.5 25.5t25.5 60.5t-25.5 60.5t-60.5 25.5t-60.5 -25.5t-25.5 -60.5z M217 422h164l-55 461l-27 291l-25 -289z" />
<glyph unicode="&#xc6;" horiz-adv-x="770" d="M4 0l297 1638h420v-163h-170v-791h102v-166h-102v-354h170v-164h-334v518h-123l-94 -518h-166zM293 684h94v551l-31 -205z" />
<glyph unicode="&#xc7;" horiz-adv-x="606" d="M66 360v918q0 360 245 360q238 0 238 -360v-150h-156v252q0 94 -82 95q-82 0 -82 -95v-1122q0 -94 82 -94t82 94v305h156v-203q0 -360 -238 -360q-246 0 -245 360zM219 -186h71q-6 -55 29 -56q35 0 35 43q0 59 -47 95q-41 35 -41 96v20h69v-16q0 -53 46 -86 q43 -35 43 -100q0 -98 -105 -99q-106 0 -100 103z" />
<glyph unicode="&#xc8;" horiz-adv-x="522" d="M66 0v1638h415v-163h-252v-557h144v-164h-144v-590h252v-164h-415zM70 1817h178l98 -105h-84z" />
<glyph unicode="&#xc9;" horiz-adv-x="522" d="M66 0v1638h415v-163h-252v-557h144v-164h-144v-590h252v-164h-415zM150 1712l98 105h178l-193 -105h-83z" />
<glyph unicode="&#xca;" horiz-adv-x="522" d="M66 0v1638h415v-163h-252v-557h144v-164h-144v-590h252v-164h-415zM79 1700l150 105h94l148 -105h-148l-47 82l-47 -82h-150z" />
<glyph unicode="&#xcb;" horiz-adv-x="522" d="M66 0v1638h415v-163h-252v-557h144v-164h-144v-590h252v-164h-415zM84 1712v105h98v-105h-98zM363 1712v105h100v-105h-100z" />
<glyph unicode="&#xcc;" horiz-adv-x="294" d="M-49 1817h178l98 -105h-84zM66 0v1638h163v-1638h-163z" />
<glyph unicode="&#xcd;" horiz-adv-x="294" d="M64 1712l98 105h178l-193 -105h-83zM66 0v1638h163v-1638h-163z" />
<glyph unicode="&#xce;" horiz-adv-x="294" d="M-48 1712l150 105h94l148 -105h-148l-47 82l-47 -82h-150zM66 0v1638h163v-1638h-163z" />
<glyph unicode="&#xcf;" horiz-adv-x="294" d="M-37 1712v105h98v-105h-98zM66 0v1638h163v-1638h-163zM242 1712v105h100v-105h-100z" />
<glyph unicode="&#xd0;" horiz-adv-x="622" d="M8 770v131h274v-131h-274zM66 0v1638h245q246 0 246 -360v-918q0 -360 -246 -360h-245zM229 164h82q82 0 82 94v1122q0 94 -82 95h-82v-1311z" />
<glyph unicode="&#xd1;" horiz-adv-x="675" d="M66 0v1638h196l168 -933l33 -248v1181h147v-1638h-196l-172 963l-29 219v-1182h-147zM150 1712q-2 45 24.5 75t67.5 30q25 0 52.5 -6.5t53 -14.5t48 -14t38.5 -6q35 4 37 41h60q0 -53 -25 -79t-62 -26q-51 0 -106 21q-59 20 -92 18q-35 0 -37 -39h-59z" />
<glyph unicode="&#xd2;" horiz-adv-x="622" d="M66 360v918q0 360 245 360q246 0 246 -360v-918q0 -360 -246 -360t-245 360zM80 1817h178l98 -105h-84zM229 258q0 -94 82 -94t82 94v1122q0 94 -82 95q-82 0 -82 -95v-1122z" />
<glyph unicode="&#xd3;" horiz-adv-x="622" d="M66 360v918q0 360 245 360q246 0 246 -360v-918q0 -360 -246 -360t-245 360zM229 258q0 -94 82 -94t82 94v1122q0 94 -82 95q-82 0 -82 -95v-1122zM240 1712l98 105h178l-193 -105h-83z" />
<glyph unicode="&#xd4;" horiz-adv-x="622" d="M66 360v918q0 360 245 360q246 0 246 -360v-918q0 -360 -246 -360t-245 360zM112 1712l150 105h94l148 -105h-148l-47 82l-47 -82h-150zM229 258q0 -94 82 -94t82 94v1122q0 94 -82 95q-82 0 -82 -95v-1122z" />
<glyph unicode="&#xd5;" horiz-adv-x="622" d="M66 360v918q0 360 245 360q246 0 246 -360v-918q0 -360 -246 -360t-245 360zM125 1712q-2 45 24.5 75t67.5 30q25 0 52.5 -6.5t53 -14.5t48 -14t38.5 -6q35 4 37 41h60q0 -53 -25 -79t-62 -26q-51 0 -106 21q-59 20 -92 18q-35 0 -37 -39h-59zM229 258q0 -94 82 -94 t82 94v1122q0 94 -82 95q-82 0 -82 -95v-1122z" />
<glyph unicode="&#xd6;" horiz-adv-x="622" d="M66 360v918q0 360 245 360q246 0 246 -360v-918q0 -360 -246 -360t-245 360zM121 1712v105h98v-105h-98zM229 258q0 -94 82 -94t82 94v1122q0 94 -82 95q-82 0 -82 -95v-1122zM400 1712v105h100v-105h-100z" />
<glyph unicode="&#xd7;" horiz-adv-x="548" d="M57 709l123 125l-123 124l93 93l124 -123l125 123l93 -93l-125 -124l122 -123l-92 -93l-123 123l-124 -125z" />
<glyph unicode="&#xd8;" horiz-adv-x="622" d="M66 360v918q0 360 245 360q246 0 246 -360v-918q0 -360 -246 -360t-245 360zM94 0l315 1638h101l-316 -1638h-100zM229 258q0 -94 82 -94t82 94v1122q0 94 -82 95q-82 0 -82 -95v-1122z" />
<glyph unicode="&#xd9;" horiz-adv-x="622" d="M66 360v1278h163v-1380q0 -94 82 -94t82 94v1380h164v-1278q0 -360 -246 -360t-245 360zM84 1817h178l98 -105h-84z" />
<glyph unicode="&#xda;" horiz-adv-x="622" d="M66 360v1278h163v-1380q0 -94 82 -94t82 94v1380h164v-1278q0 -360 -246 -360t-245 360zM193 1712l98 105h178l-193 -105h-83z" />
<glyph unicode="&#xdb;" horiz-adv-x="622" d="M66 360v1278h163v-1380q0 -94 82 -94t82 94v1380h164v-1278q0 -360 -246 -360t-245 360zM112 1712l150 105h94l148 -105h-148l-47 82l-47 -82h-150z" />
<glyph unicode="&#xdc;" horiz-adv-x="622" d="M66 360v1278h163v-1380q0 -94 82 -94t82 94v1380h164v-1278q0 -360 -246 -360t-245 360zM121 1712v105h98v-105h-98zM400 1712v105h100v-105h-100z" />
<glyph unicode="&#xdd;" horiz-adv-x="593" d="M0 1638h168l98 -505l31 -222l31 222l96 505h170l-215 -938v-700h-164v700zM156 1712l98 105h178l-193 -105h-83z" />
<glyph unicode="&#xde;" horiz-adv-x="630" d="M66 0v1638h163v-419h88q272 0 273 -377v-66q0 -377 -271 -377h-90v-399h-163zM229 563h90q106 0 107 111v270q0 111 -109 111h-88v-492z" />
<glyph unicode="&#xdf;" horiz-adv-x="579" d="M70 0v1319q0 319 223 319q225 0 225 -319v-246q0 -180 -80 -237q80 -59 80 -238v-279q0 -319 -244 -319v141q100 0 101 95v436q0 90 -103 94v141q102 0 103 94v402q0 94 -82 94t-82 -94v-1403h-141z" />
<glyph unicode="&#xe0;" horiz-adv-x="555" d="M56 1391h178l98 -105h-84zM66 289v92q0 141 108 219q55 39 98 69.5t76 53.5v264q0 82 -65 82q-61 0 -62 -82v-227h-141v168q0 289 203 289q207 0 206 -289v-928h-141v53q-35 -53 -115 -53q-168 0 -167 289zM207 229q0 -84 65 -84q76 0 76 84v318q-29 -14 -52.5 -30.5 t-45.5 -33.5q-43 -35 -43 -118v-136z" />
<glyph unicode="&#xe1;" horiz-adv-x="555" d="M66 289v92q0 141 108 219q55 39 98 69.5t76 53.5v264q0 82 -65 82q-61 0 -62 -82v-227h-141v168q0 289 203 289q207 0 206 -289v-928h-141v53q-35 -53 -115 -53q-168 0 -167 289zM207 229q0 -84 65 -84q76 0 76 84v318q-29 -14 -52.5 -30.5t-45.5 -33.5q-43 -35 -43 -118 v-136zM207 1286l98 105h178l-193 -105h-83z" />
<glyph unicode="&#xe2;" horiz-adv-x="555" d="M66 289v92q0 141 108 219q55 39 98 69.5t76 53.5v264q0 82 -65 82q-61 0 -62 -82v-227h-141v168q0 289 203 289q207 0 206 -289v-928h-141v53q-35 -53 -115 -53q-168 0 -167 289zM98 1286l150 105h94l148 -105h-148l-47 82l-47 -82h-150zM207 229q0 -84 65 -84 q76 0 76 84v318q-29 -14 -52.5 -30.5t-45.5 -33.5q-43 -35 -43 -118v-136z" />
<glyph unicode="&#xe3;" horiz-adv-x="555" d="M66 289v92q0 141 108 219q55 39 98 69.5t76 53.5v264q0 82 -65 82q-61 0 -62 -82v-227h-141v168q0 289 203 289q207 0 206 -289v-928h-141v53q-35 -53 -115 -53q-168 0 -167 289zM97 1286q-2 45 24.5 75t67.5 30q25 0 52.5 -6.5t53 -14.5t48 -14t38.5 -6q35 4 37 41h60 q0 -53 -25 -79t-62 -26q-51 0 -106 21q-59 20 -92 18q-35 0 -37 -39h-59zM207 229q0 -84 65 -84q76 0 76 84v318q-29 -14 -52.5 -30.5t-45.5 -33.5q-43 -35 -43 -118v-136z" />
<glyph unicode="&#xe4;" horiz-adv-x="555" d="M66 289v92q0 141 108 219q55 39 98 69.5t76 53.5v264q0 82 -65 82q-61 0 -62 -82v-227h-141v168q0 289 203 289q207 0 206 -289v-928h-141v53q-35 -53 -115 -53q-168 0 -167 289zM88 1286v105h98v-105h-98zM207 229q0 -84 65 -84q76 0 76 84v318q-29 -14 -52.5 -30.5 t-45.5 -33.5q-43 -35 -43 -118v-136zM367 1286v105h100v-105h-100z" />
<glyph unicode="&#xe5;" horiz-adv-x="555" d="M66 289v92q0 141 108 219q55 39 98 69.5t76 53.5v264q0 82 -65 82q-61 0 -62 -82v-227h-141v168q0 289 203 289q207 0 206 -289v-928h-141v53q-35 -53 -115 -53q-168 0 -167 289zM166 1346q0 47 33.5 81.5t80.5 34.5t82 -34.5t35 -81.5t-35 -81t-82 -34t-80.5 34 t-33.5 81zM194 1346q0 -35 25.5 -60.5t60.5 -25.5t60.5 25.5t25.5 60.5t-25.5 60.5t-60.5 25.5t-60.5 -25.5t-25.5 -60.5zM207 229q0 -84 65 -84q76 0 76 84v318q-29 -14 -52.5 -30.5t-45.5 -33.5q-43 -35 -43 -118v-136z" />
<glyph unicode="&#xe6;" horiz-adv-x="839" d="M66 289v92q0 141 108 219q55 39 98 69.5t76 53.5v205v14v45q0 82 -65 82q-61 0 -62 -82v-227h-141v168q0 289 203 289q86 0 135 -72q53 72 141 72q215 0 215 -289v-346h-285v-353q0 -84 70 -84q74 0 74 84v234h141v-174q0 -289 -203 -289q-98 0 -155 76q-51 -76 -142 -76 q-209 0 -208 289zM207 229q0 -84 65 -84q76 0 76 84v318q-29 -14 -52.5 -30.5t-45.5 -33.5q-43 -35 -43 -118v-136zM489 725h144v262q0 82 -74 82q-70 0 -70 -82v-262z" />
<glyph unicode="&#xe7;" horiz-adv-x="548" d="M66 289v639q0 289 210 289q215 0 216 -289v-168h-142v227q0 82 -74 82q-70 0 -69 -82v-758q0 -84 69 -84q74 0 74 84v234h142v-174q0 -289 -216 -289q-211 0 -210 289zM197 -186h71q-6 -55 29 -56q35 0 35 43q0 59 -47 95q-41 35 -41 96v20h69v-16q0 -53 46 -86 q43 -35 43 -100q0 -98 -105 -99q-106 0 -100 103z" />
<glyph unicode="&#xe8;" d="M66 289v639q0 289 210 289q215 0 216 -289v-346h-285v-353q0 -84 69 -84q74 0 74 84v234h142v-174q0 -289 -216 -289q-211 0 -210 289zM76 1391h178l98 -105h-84zM207 725h143v262q0 82 -74 82q-70 0 -69 -82v-262z" />
<glyph unicode="&#xe9;" d="M66 289v639q0 289 210 289q215 0 216 -289v-346h-285v-353q0 -84 69 -84q74 0 74 84v234h142v-174q0 -289 -216 -289q-211 0 -210 289zM199 1286l98 105h178l-193 -105h-83zM207 725h143v262q0 82 -74 82q-70 0 -69 -82v-262z" />
<glyph unicode="&#xea;" d="M66 289v639q0 289 210 289q215 0 216 -289v-346h-285v-353q0 -84 69 -84q74 0 74 84v234h142v-174q0 -289 -216 -289q-211 0 -210 289zM81 1286l150 105h94l148 -105h-148l-47 82l-47 -82h-150zM207 725h143v262q0 82 -74 82q-70 0 -69 -82v-262z" />
<glyph unicode="&#xeb;" d="M66 289v639q0 289 210 289q215 0 216 -289v-346h-285v-353q0 -84 69 -84q74 0 74 84v234h142v-174q0 -289 -216 -289q-211 0 -210 289zM90 1286v105h98v-105h-98zM207 725h143v262q0 82 -74 82q-70 0 -69 -82v-262zM369 1286v105h100v-105h-100z" />
<glyph unicode="&#xec;" horiz-adv-x="288" d="M-41 1391h178l98 -105h-84zM78 0v1217h141v-1217h-141z" />
<glyph unicode="&#xed;" horiz-adv-x="288" d="M78 0v1217h141v-1217h-141zM84 1286l98 105h178l-193 -105h-83z" />
<glyph unicode="&#xee;" horiz-adv-x="288" d="M-45 1286l150 105h94l148 -105h-148l-47 82l-47 -82h-150zM78 0v1217h141v-1217h-141z" />
<glyph unicode="&#xef;" horiz-adv-x="288" d="M-37 1286v105h98v-105h-98zM78 0v1217h141v-1217h-141zM242 1286v105h100v-105h-100z" />
<glyph unicode="&#xf0;" horiz-adv-x="622" d="M63 360v291q0 360 246 361q45 0 82 -31v399q0 94 -82 95q-82 0 -82 -95v-252h-164v150q0 360 246 360t246 -360v-918q0 -360 -246 -360t-246 360zM227 258q0 -94 82 -94t82 94v502q-2 88 -82 88q-82 0 -82 -96v-494z" />
<glyph unicode="&#xf1;" d="M66 0v1217h141v-50q25 49 117 50q168 0 168 -289v-928h-142v987q0 82 -71 82q-72 0 -72 -82v-987h-141zM80 1286q-2 45 24.5 75t67.5 30q25 0 52.5 -6.5t53 -14.5t48 -14t38.5 -6q35 4 37 41h60q0 -53 -25 -79t-62 -26q-51 0 -106 21q-59 20 -92 18q-35 0 -37 -39h-59z " />
<glyph unicode="&#xf2;" d="M66 289v639q0 289 210 289q215 0 216 -289v-639q0 -289 -216 -289q-211 0 -210 289zM66 1391h178l98 -105h-84zM207 229q0 -84 69 -84q74 0 74 84v758q0 82 -74 82q-70 0 -69 -82v-758z" />
<glyph unicode="&#xf3;" d="M66 289v639q0 289 210 289q215 0 216 -289v-639q0 -289 -216 -289q-211 0 -210 289zM156 1286l98 105h178l-193 -105h-83zM207 229q0 -84 69 -84q74 0 74 84v758q0 82 -74 82q-70 0 -69 -82v-758z" />
<glyph unicode="&#xf4;" d="M66 289v639q0 289 210 289q215 0 216 -289v-639q0 -289 -216 -289q-211 0 -210 289zM86 1286l150 105h94l148 -105h-148l-47 82l-47 -82h-150zM207 229q0 -84 69 -84q74 0 74 84v758q0 82 -74 82q-70 0 -69 -82v-758z" />
<glyph unicode="&#xf5;" d="M66 289v639q0 289 210 289q215 0 216 -289v-639q0 -289 -216 -289q-211 0 -210 289zM95 1286q-2 45 24.5 75t67.5 30q25 0 52.5 -6.5t53 -14.5t48 -14t38.5 -6q35 4 37 41h60q0 -53 -25 -79t-62 -26q-51 0 -106 21q-59 20 -92 18q-35 0 -37 -39h-59zM207 229 q0 -84 69 -84q74 0 74 84v758q0 82 -74 82q-70 0 -69 -82v-758z" />
<glyph unicode="&#xf6;" d="M66 289v639q0 289 210 289q215 0 216 -289v-639q0 -289 -216 -289q-211 0 -210 289zM90 1286v105h98v-105h-98zM207 229q0 -84 69 -84q74 0 74 84v758q0 82 -74 82q-70 0 -69 -82v-758zM369 1286v105h100v-105h-100z" />
<glyph unicode="&#xf7;" horiz-adv-x="622" d="M20 770v131h578v-131h-578zM227 457v196h148v-196h-148zM227 1018v196h148v-196h-148z" />
<glyph unicode="&#xf8;" d="M66 289v639q0 289 210 289q215 0 216 -289v-639q0 -289 -216 -289q-211 0 -210 289zM93 0l234 1218h75l-235 -1218h-74zM207 229q0 -84 69 -84q74 0 74 84v758q0 82 -74 82q-70 0 -69 -82v-758z" />
<glyph unicode="&#xf9;" d="M66 289v928h141v-988q0 -82 72 -82t71 82v988h142v-1217h-142v49q-25 -49 -117 -49q-168 0 -167 289zM70 1391h178l98 -105h-84z" />
<glyph unicode="&#xfa;" d="M66 289v928h141v-988q0 -82 72 -82t71 82v988h142v-1217h-142v49q-25 -49 -117 -49q-168 0 -167 289zM175 1286l98 105h178l-193 -105h-83z" />
<glyph unicode="&#xfb;" d="M66 289v928h141v-988q0 -82 72 -82t71 82v988h142v-1217h-142v49q-25 -49 -117 -49q-168 0 -167 289zM79 1286l150 105h94l148 -105h-148l-47 82l-47 -82h-150z" />
<glyph unicode="&#xfc;" d="M66 289v928h141v-988q0 -82 72 -82t71 82v988h142v-1217h-142v49q-25 -49 -117 -49q-168 0 -167 289zM88 1286v105h98v-105h-98zM367 1286v105h100v-105h-100z" />
<glyph unicode="&#xfd;" horiz-adv-x="503" d="M16 1217h146l67 -541l23 -258l20 256l68 543h147l-161 -1217q-20 -147 -95 -218t-192 -71v148q123 8 145 141zM142 1286l98 105h178l-193 -105h-83z" />
<glyph unicode="&#xfe;" d="M66 -289v1927h141v-471q25 49 117 50q168 0 168 -289v-639q0 -289 -185 -289q-61 0 -100 25v-314h-141zM207 229q0 -84 72 -84t71 84v758q0 82 -71 82q-72 0 -72 -82v-758z" />
<glyph unicode="&#xff;" horiz-adv-x="503" d="M16 1217h146l67 -541l23 -258l20 256l68 543h147l-161 -1217q-20 -147 -95 -218t-192 -71v148q123 8 145 141zM63 1286v105h98v-105h-98zM342 1286v105h100v-105h-100z" />
<glyph unicode="&#x152;" horiz-adv-x="806" d="M66 360v918q0 360 210 360q80 0 117 -43v43h375v-163h-211v-557h102v-164h-102v-590h211v-164h-375v41q-37 -41 -112 -41q-215 0 -215 360zM229 258q0 -94 82 -94t82 94v1122q0 94 -82 95q-82 0 -82 -95v-1122z" />
<glyph unicode="&#x153;" horiz-adv-x="796" d="M47 289v639q0 289 211 289q90 0 143 -74q51 74 142 74q215 0 215 -289v-346h-285v-353q0 -84 70 -84q74 0 73 84v234h142v-174q0 -289 -215 -289q-88 0 -142 72q-53 -72 -143 -72q-211 0 -211 289zM188 229q0 -84 70 -84q74 0 74 84v758q0 82 -74 82q-70 0 -70 -82v-758z M473 725h143v262q0 82 -73 82q-70 0 -70 -82v-262z" />
<glyph unicode="&#x178;" horiz-adv-x="593" d="M0 1638h168l98 -505l31 -222l31 222l96 505h170l-215 -938v-700h-164v700zM102 1712v105h98v-105h-98zM381 1712v105h100v-105h-100z" />
<glyph unicode="&#x2c6;" horiz-adv-x="423" d="M18 1712l150 105h94l148 -105h-148l-47 82l-47 -82h-150z" />
<glyph unicode="&#x2dc;" horiz-adv-x="425" d="M25 1712q-2 45 24.5 75t67.5 30q25 0 52.5 -6.5t53 -14.5t48 -14t38.5 -6q35 4 37 41h60q0 -53 -25 -79t-62 -26q-51 0 -106 21q-59 20 -92 18q-35 0 -37 -39h-59z" />
<glyph unicode="&#x2000;" horiz-adv-x="944" />
<glyph unicode="&#x2001;" horiz-adv-x="1888" />
<glyph unicode="&#x2002;" horiz-adv-x="944" />
<glyph unicode="&#x2003;" horiz-adv-x="1888" />
<glyph unicode="&#x2004;" horiz-adv-x="629" />
<glyph unicode="&#x2005;" horiz-adv-x="472" />
<glyph unicode="&#x2006;" horiz-adv-x="314" />
<glyph unicode="&#x2007;" horiz-adv-x="314" />
<glyph unicode="&#x2008;" horiz-adv-x="236" />
<glyph unicode="&#x2009;" horiz-adv-x="377" />
<glyph unicode="&#x200a;" horiz-adv-x="104" />
<glyph unicode="&#x2010;" horiz-adv-x="339" d="M33 770v131h274v-131h-274z" />
<glyph unicode="&#x2011;" horiz-adv-x="339" d="M33 770v131h274v-131h-274z" />
<glyph unicode="&#x2012;" horiz-adv-x="339" d="M33 770v131h274v-131h-274z" />
<glyph unicode="&#x2013;" horiz-adv-x="559" d="M33 770v131h479v-131h-479z" />
<glyph unicode="&#x2014;" horiz-adv-x="897" d="M33 770v131h821v-131h-821z" />
<glyph unicode="&#x2018;" horiz-adv-x="204" d="M35 1325v164q0 152 123 149v-71q-66 0 -66 -72h90v-170h-147z" />
<glyph unicode="&#x2019;" horiz-adv-x="217" d="M47 1470v170h148v-163q0 -154 -123 -150v72q66 0 65 71h-90z" />
<glyph unicode="&#x201a;" horiz-adv-x="231" d="M37 27v170h147v-164q0 -154 -123 -150v72q66 0 66 72h-90z" />
<glyph unicode="&#x201c;" horiz-adv-x="428" d="M55 1325v164q0 152 123 149v-71q-66 0 -65 -72h90v-170h-148zM260 1325v164q0 152 123 149v-71q-66 0 -66 -72h91v-170h-148z" />
<glyph unicode="&#x201d;" horiz-adv-x="415" d="M43 1470v170h147v-163q0 -154 -122 -150v72q66 0 65 71h-90zM248 1470v170h147v-163q0 -154 -123 -150v72q66 0 66 71h-90z" />
<glyph unicode="&#x201e;" horiz-adv-x="421" d="M37 27v170h147v-164q0 -154 -123 -150v72q66 0 66 72h-90zM238 27v170h147v-164q0 -154 -123 -150v72q66 0 66 72h-90z" />
<glyph unicode="&#x2022;" horiz-adv-x="935" d="M37 670q0 90 33.5 169t93 138t138.5 93t169 34t169 -34t138.5 -93t93 -138t33.5 -169t-33.5 -169t-93 -138.5t-138.5 -93t-169 -33.5t-169 33.5t-138.5 93t-93 138.5t-33.5 169z" />
<glyph unicode="&#x2026;" horiz-adv-x="1701" d="M289 0v197h147v-197h-147zM772 0v197h147v-197h-147zM1256 0v197h147v-197h-147z" />
<glyph unicode="&#x202f;" horiz-adv-x="377" />
<glyph unicode="&#x2039;" horiz-adv-x="722" d="M133 528l320 455h147l-262 -455l260 -456h-145z" />
<glyph unicode="&#x203a;" horiz-adv-x="741" d="M139 72l267 456l-267 455h152l313 -455l-313 -456h-152z" />
<glyph unicode="&#x205f;" horiz-adv-x="472" />
<glyph unicode="&#x2122;" horiz-adv-x="987" d="M61 1509v129h340v-129h-118v-508h-125v508h-97zM457 1001v637h131l80 -540l82 540h135v-637h-97v455l-69 -455h-103l-65 443v-443h-94z" />
<glyph unicode="&#xe000;" horiz-adv-x="1218" d="M0 0v1219h1219v-1219h-1219z" />
<glyph unicode="&#xfb01;" horiz-adv-x="524" d="M8 1069v148h47v133q0 289 236 288h186v-147h-186q-94 0 -94 -82v-192h280v-1217h-141v1069h-139v-1069h-142v1069h-47z" />
<glyph unicode="&#xfb02;" horiz-adv-x="524" d="M8 1069v148h47v133q0 289 236 288h186v-1638h-141v1069h-139v-1069h-142v1069h-47zM197 1217h139v274h-45q-94 0 -94 -82v-192z" />
</font>
</defs>
</svg>
